<svg width="32" height="32" viewBox="0 0 32 32" fill="none" xmlns="http://www.w3.org/2000/svg">
<rect width="32" height="32" rx="4" fill="#3D3D3D"/>
<path d="M7.16716 9.64672H4.62738V27.1487H7.16716V9.64672Z" fill="white"/>
<path d="M18.9773 9.41614C14.0133 9.41614 9.97386 13.4458 9.97386 18.3977C9.97386 23.3497 14.0133 27.3793 18.9773 27.3793C23.9413 27.3793 27.9807 23.3497 27.9807 18.3977C27.9807 13.4458 23.9413 9.41614 18.9773 9.41614ZM25.3997 18.3977C25.3997 21.9305 22.5187 24.8045 18.9773 24.8045C15.4359 24.8045 12.5522 21.9305 12.5522 18.3977C12.5522 14.8649 15.4332 11.9882 18.9773 11.9882C22.5214 11.9882 25.3997 14.8649 25.3997 18.3977Z" fill="white"/>
<path d="M28 24.4559C24.5246 24.4559 21.6959 21.634 21.6959 18.1671V17.6923H18.8782V18.1671C18.8782 23.185 22.97 27.2667 28 27.2667V24.4559Z" fill="#EC690B"/>
<path d="M7.79454 6.5147C7.79454 7.56054 6.94428 8.40874 5.8959 8.40874C4.84751 8.40874 4 7.56054 4 6.5147C4 5.46886 4.85026 4.62067 5.89865 4.62067C6.94703 4.62067 7.79729 5.46886 7.79729 6.5147" fill="#EC690B"/>
</svg>
